<?xml version="1.0" encoding="UTF-8"?>
<svg width="21px" height="21px" viewBox="0 0 21 21" version="1.1" xmlns="http://www.w3.org/2000/svg" xmlns:xlink="http://www.w3.org/1999/xlink">
    <title>Create-New-Button</title>
    <g id="Page-1" stroke="none" stroke-width="1" fill="none" fill-rule="evenodd">
        <g id="CSW-E-7" transform="translate(-1190.000000, -68.000000)" fill="#012169">
            <g id="Add-icon" transform="translate(1190.000000, 68.000000)">
                <path d="M10.5,1.5 C15.45,1.5 19.5,5.55 19.5,10.5 C19.5,15.45 15.45,19.5 10.5,19.5 C5.55,19.5 1.5,15.45 1.5,10.5 C1.5,5.55 5.55,1.5 10.5,1.5 M10.5,0 C4.725,0 0,4.725 0,10.5 C0,16.275 4.725,21 10.5,21 C16.275,21 21,16.275 21,10.5 C21,4.725 16.275,0 10.5,0 Z M16.5,9.75 L11.25,9.75 L11.25,4.5 L9.75,4.5 L9.75,9.75 L4.5,9.75 L4.5,11.25 L9.75,11.25 L9.75,16.5 L11.25,16.5 L11.25,11.25 L16.5,11.25 L16.5,9.75 Z" id="Fill"></path>
            </g>
        </g>
    </g>
</svg>