<?xml version="1.0" encoding="UTF-8"?>
<svg width="18px" height="18px" viewBox="0 0 18 18" version="1.1" xmlns="http://www.w3.org/2000/svg" xmlns:xlink="http://www.w3.org/1999/xlink">
    <title>Fill</title>
    <g id="Page-1" stroke="none" stroke-width="1" fill="none" fill-rule="evenodd" fill-opacity="0.4">
        <g id="Topology-v2" transform="translate(-15.000000, -137.000000)" fill="#012169">
            <g id="Organization-/-File-/-application-/-24" transform="translate(12.000000, 134.000000)">
                <path d="M12,13.5 L4.5,13.5 C3.67157288,13.5 3,12.8284271 3,12 L3,4.5 C3,3.67157288 3.67157288,3 4.5,3 L12,3 C12.8284271,3 13.5,3.67157288 13.5,4.5 L13.5,12 C13.5,12.8284271 12.8284271,13.5 12,13.5 Z M4.5,4.5 L4.5,12 L12,12 L12,4.5 L4.5,4.5 Z M19.5,9 L19.5,12 L16.5,12 L16.5,9 L19.5,9 M19.5,7.5 L16.5,7.5 C15.6715729,7.5 15,8.17157288 15,9 L15,12 C15,12.8284271 15.6715729,13.5 16.5,13.5 L19.5,13.5 C20.3284271,13.5 21,12.8284271 21,12 L21,9 C21,8.17157288 20.3284271,7.5 19.5,7.5 Z M19.5,16.5 L19.5,19.5 L16.5,19.5 L16.5,16.5 L19.5,16.5 M19.5,15 L16.5,15 C15.6715729,15 15,15.6715729 15,16.5 L15,19.5 C15,20.3284271 15.6715729,21 16.5,21 L19.5,21 C20.3284271,21 21,20.3284271 21,19.5 L21,16.5 C21,15.6715729 20.3284271,15 19.5,15 Z M12,16.5 L12,19.5 L9,19.5 L9,16.5 L12,16.5 M12,15 L9,15 C8.17157288,15 7.5,15.6715729 7.5,16.5 L7.5,19.5 C7.5,20.3284271 8.17157288,21 9,21 L12,21 C12.8284271,21 13.5,20.3284271 13.5,19.5 L13.5,16.5 C13.5,15.6715729 12.8284271,15 12,15 Z" id="Fill"></path>
            </g>
        </g>
    </g>
</svg>