<?xml version="1.0" encoding="UTF-8"?>
<svg width="76px" height="32px" viewBox="0 0 76 32" version="1.1" xmlns="http://www.w3.org/2000/svg" xmlns:xlink="http://www.w3.org/1999/xlink">
    <title>Canvas-Selected</title>
    <g id="Page-1" stroke="none" stroke-width="1" fill="none" fill-rule="evenodd">
        <g id="CSW-E-17" transform="translate(-956.000000, -62.000000)">
            <g id="Canvas-Selected" transform="translate(956.600000, 62.000000)">
                <g id="Group-7" transform="translate(37.400000, 0.000000)">
                    <path d="M35.555556,0.5 C35.9697696,0.5 36.3447696,0.667893219 36.6162162,0.939339828 C36.8876628,1.21078644 37.055556,1.58578644 37.055556,2 L37.055556,2 L37.055556,30 C37.055556,30.4142136 36.8876628,30.7892136 36.6162162,31.0606602 C36.3447696,31.3321068 35.9697696,31.5 35.555556,31.5 L35.555556,31.5 L0.5,31.5 L0.5,0.5 Z" id="Rectangle" stroke-opacity="0.4" stroke="#012169" fill-opacity="0.2" fill="#E2E2E2"></path>
                    <path d="M30.375,16.4576322 L25.1541667,21.6784655 L24.1025417,20.6268405 L28.2642917,16.4576322 L24.1025417,12.2884238 L25.1541667,11.2367988 L30.375,16.4576322 L30.375,16.4576322 Z M8,16.4576322 L13.2208333,11.2367988 L14.2724583,12.2884238 L10.1107083,16.4576322 L14.2724583,20.6268405 L13.2208333,21.6784655 L8,16.4576322 L8,16.4576322 Z M16.5163038,23.5308649 L20.4098374,9 L21.8506767,9.38607174 L17.9571432,23.9169367 L16.5163038,23.5308649 Z" id="Fill" fill="#012169"></path>
                </g>
                <g id="Group-8">
                    <path d="M37.055556,0.5 L37.055556,31.5 L2,31.5 C1.58578644,31.5 1.21078644,31.3321068 0.939339828,31.0606602 C0.667893219,30.7892136 0.5,30.4142136 0.5,30 L0.5,30 L0.5,2 C0.5,1.58578644 0.667893219,1.21078644 0.939339828,0.939339828 C1.21078644,0.667893219 1.58578644,0.5 2,0.5 L2,0.5 L37.055556,0.5 Z" id="Rectangle" stroke="#012169" fill="#012169"></path>
                    <g id="Table-view" transform="translate(8.000000, 5.000000)">
                        <rect id="Rectangle" x="0" y="0" width="22" height="22"></rect>
                        <path d="M18.1043702,14.7718427 L18.1043702,11.2380927 C18.1043702,10.4787012 17.4887617,9.86309272 16.7293702,9.86309272 L11.2293702,9.86309272 L11.2293702,6.32934272 C12.5702061,5.98314038 13.4444438,4.69392685 13.2699519,3.32015486 C13.0954599,1.94638288 11.9266795,0.916666667 10.5418702,0.916666667 C9.15706085,0.916666667 7.98828044,1.94638288 7.81378852,3.32015486 C7.6392966,4.69392685 8.51353431,5.98314038 9.85437019,6.32934272 L9.85437019,9.86309272 L4.35437019,9.86309272 C3.59497866,9.86309272 2.97937019,10.4787012 2.97937019,11.2380927 L2.97937019,14.7718427 C1.63853431,15.1180451 0.764296601,16.4072586 0.938788522,17.7810306 C1.11328044,19.1548026 2.28206085,20.1845188 3.66687019,20.1845188 C5.05167952,20.1845188 6.22045993,19.1548026 6.39495185,17.7810306 C6.56944377,16.4072586 5.69520606,15.1180451 4.35437019,14.7718427 L4.35437019,11.2380927 L16.7293702,11.2380927 L16.7293702,14.7718427 C15.3885343,15.1180451 14.5142966,16.4072586 14.6887885,17.7810306 C14.8632804,19.1548026 16.0320609,20.1845188 17.4168702,20.1845188 C18.8016795,20.1845188 19.9704599,19.1548026 20.1449519,17.7810306 C20.3194438,16.4072586 19.4452061,15.1180451 18.1043702,14.7718427 Z M5.04187019,17.4255927 C5.04187019,18.1849842 4.42626172,18.8005927 3.66687019,18.8005927 C2.90747866,18.8005927 2.29187019,18.1849842 2.29187019,17.4255927 C2.29187019,16.6662012 2.90747866,16.0505927 3.66687019,16.0505927 C4.42626172,16.0505927 5.04187019,16.6662012 5.04187019,17.4255927 Z M9.16687019,3.67559272 C9.16687019,2.91620119 9.78247866,2.30059272 10.5418702,2.30059272 C11.3012617,2.30059272 11.9168702,2.91620119 11.9168702,3.67559272 C11.9168702,4.43498425 11.3012617,5.05059272 10.5418702,5.05059272 C9.78247866,5.05059272 9.16687019,4.43498425 9.16687019,3.67559272 Z M17.4168702,18.8005927 C16.6574787,18.8005927 16.0418702,18.1849842 16.0418702,17.4255927 C16.0418702,16.6662012 16.6574787,16.0505927 17.4168702,16.0505927 C18.1762617,16.0505927 18.7918702,16.6662012 18.7918702,17.4255927 C18.7918702,18.1849842 18.1762617,18.8005927 17.4168702,18.8005927 Z" id="Fill" fill="#FFFFFF"></path>
                    </g>
                </g>
            </g>
        </g>
    </g>
</svg>