<?xml version="1.0" encoding="UTF-8"?>
<svg width="128px" height="38px" viewBox="0 0 128 38" version="1.1" xmlns="http://www.w3.org/2000/svg" xmlns:xlink="http://www.w3.org/1999/xlink">
    <title>54D9966A-2104-4FF9-B6E9-C8E013716BDC</title>
    <g id="Page-1" stroke="none" stroke-width="1" fill="none" fill-rule="evenodd">
        <g id="Prod-Topology-Overview-v5" transform="translate(-680.000000, -59.000000)">
            <g id="Content-Switcher" transform="translate(681.000000, 60.000000)">
                <g id="Backbround" stroke="#D8D8D8" stroke-opacity="0.4">
                    <g id="Right-section" transform="translate(63.000000, 0.000000)" fill="#D5D5D5" fill-opacity="0.2">
                        <path d="M0,0 L59,0 C61.209139,-4.05812251e-16 63,1.790861 63,4 L63,32 C63,34.209139 61.209139,36 59,36 L0,36 L0,36 L0,0 Z" id="Background"></path>
                    </g>
                    <g id="Left-section" fill="#FFFFFF">
                        <path d="M4,0 L63,0 L63,0 L63,36 L4,36 C1.790861,36 2.705415e-16,34.209139 0,32 L0,4 C-2.705415e-16,1.790861 1.790861,4.05812251e-16 4,0 Z" id="Background"></path>
                    </g>
                </g>
                <g id="Code-Editor-Icon" opacity="0.4" transform="translate(83.750000, 10.500705)" fill="#012169">
                    <path d="M22.5,7.4992949 L17.25,12.7492949 L16.1925,11.6917949 L20.3775,7.4992949 L16.1925,3.3067949 L17.25,2.2492949 L22.5,7.4992949 L22.5,7.4992949 Z M0,7.4992949 L5.25,2.2492949 L6.3075,3.3067949 L2.1225,7.4992949 L6.3075,11.6917949 L5.25,12.7492949 L0,7.4992949 L0,7.4992949 Z M8.56388096,14.6120429 L12.4791661,-1.0906831e-12 L13.9280548,0.388228568 L10.0127697,15.0002715 L8.56388096,14.6120429 Z" id="Fill"></path>
                </g>
                <g id="Table-View-Icon" transform="translate(23.000000, 9.000000)" fill="#012169">
                    <path d="M16.071279,12.9434857 L16.071279,9.64226152 C16.071279,8.93283903 15.4956573,8.35773848 14.7855919,8.35773848 L9.64284355,8.35773848 L9.64284355,5.05651426 C10.8965856,4.73309253 11.7140374,3.52871108 11.5508796,2.24533525 C11.3877217,0.961959419 10.2948593,0 9,0 C7.70514073,0 6.61227826,0.961959419 6.44912043,2.24533525 C6.28596261,3.52871108 7.10341435,4.73309253 8.35715645,5.05651426 L8.35715645,8.35773848 L3.21440805,8.35773848 C2.50434267,8.35773848 1.92872095,8.93283903 1.92872095,9.64226152 L1.92872095,12.9434857 C0.674978852,13.2669075 -0.142472893,14.4712889 0.0206849335,15.7546647 C0.18384276,17.0380406 1.27670523,18 2.5715645,18 C3.86642377,18 4.95928624,17.0380406 5.12244407,15.7546647 C5.28560189,14.4712889 4.46815015,13.2669075 3.21440805,12.9434857 L3.21440805,9.64226152 L14.7855919,9.64226152 L14.7855919,12.9434857 C13.5318499,13.2669075 12.7143981,14.4712889 12.8775559,15.7546647 C13.0407138,17.0380406 14.1335762,18 15.4284355,18 C16.7232948,18 17.8161572,17.0380406 17.9793151,15.7546647 C18.1424729,14.4712889 17.3250211,13.2669075 16.071279,12.9434857 Z M3.8572516,15.4226152 C3.8572516,16.1320377 3.28162988,16.7071383 2.5715645,16.7071383 C1.86149912,16.7071383 1.2858774,16.1320377 1.2858774,15.4226152 C1.2858774,14.7131927 1.86149912,14.1380922 2.5715645,14.1380922 C3.28162988,14.1380922 3.8572516,14.7131927 3.8572516,15.4226152 Z M7.7143129,2.57738479 C7.7143129,1.8679623 8.28993462,1.29286175 9,1.29286175 C9.71006538,1.29286175 10.2856871,1.8679623 10.2856871,2.57738479 C10.2856871,3.28680728 9.71006538,3.86190783 9,3.86190783 C8.28993462,3.86190783 7.7143129,3.28680728 7.7143129,2.57738479 Z M15.4284355,16.7071383 C14.7183701,16.7071383 14.1427484,16.1320377 14.1427484,15.4226152 C14.1427484,14.7131927 14.7183701,14.1380922 15.4284355,14.1380922 C16.1385009,14.1380922 16.7141226,14.7131927 16.7141226,15.4226152 C16.7141226,16.1320377 16.1385009,16.7071383 15.4284355,16.7071383 Z" id="Fill"></path>
                </g>
            </g>
        </g>
    </g>
</svg>