<?xml version="1.0" encoding="UTF-8"?>
<svg width="20px" height="20px" viewBox="0 0 20 20" version="1.1" xmlns="http://www.w3.org/2000/svg" xmlns:xlink="http://www.w3.org/1999/xlink">
    <title>0775BA0B-DA93-4CAF-BC91-E4FA1CFCB787</title>
    <g id="Page-1" stroke="none" stroke-width="1" fill="none" fill-rule="evenodd">
        <g id="Prod-Topology-Overview-v5" transform="translate(-1183.000000, -68.000000)" fill="#012169">
            <g id="Organization-/-File-/-copy-/-24" transform="translate(1183.000000, 68.000000)">
                <path d="M17.5,6.25 L17.5,17.5 L6.25,17.5 L6.25,6.25 L17.5,6.25 M17.5,5 L6.25,5 C5.55964406,5 5,5.55964406 5,6.25 L5,17.5 C5,18.1903559 5.55964406,18.75 6.25,18.75 L17.5,18.75 C18.1903559,18.75 18.75,18.1903559 18.75,17.5 L18.75,6.25 C18.75,5.55964406 18.1903559,5 17.5,5 Z M2.5,11.25 L1.25,11.25 L1.25,2.5 C1.25,1.80964406 1.80964406,1.25 2.5,1.25 L11.25,1.25 L11.25,2.5 L2.5,2.5 L2.5,11.25 Z" id="Fill"></path>
            </g>
        </g>
    </g>
</svg>