<?xml version="1.0" encoding="UTF-8"?>
<svg width="24px" height="24px" viewBox="0 0 24 24" version="1.1" xmlns="http://www.w3.org/2000/svg" xmlns:xlink="http://www.w3.org/1999/xlink">
    <title>Group 2</title>
    <g id="Page-1" stroke="none" stroke-width="1" fill="none" fill-rule="evenodd">
        <g id="CSW-E-7" transform="translate(-1231.000000, -66.000000)" fill="#012169">
            <g id="Actions-/-Formatting-/-trash-can-/-24" transform="translate(1231.000000, 66.000000)">
                <path d="M9,9 L10.5,9 L10.5,18 L9,18 L9,9 Z M13.5,9 L15,9 L15,18 L13.5,18 L13.5,9 Z M3,4.5 L3,6 L4.5,6 L4.5,21 C4.5,21.8284271 5.17157288,22.5 6,22.5 L18,22.5 C18.8284271,22.5 19.5,21.8284271 19.5,21 L19.5,6 L21,6 L21,4.5 L3,4.5 Z M6,21 L6,6 L18,6 L18,21 L6,21 Z M9,1.5 L15,1.5 L15,3 L9,3 L9,1.5 Z" id="Fill"></path>
            </g>
        </g>
    </g>
</svg>