<?xml version="1.0" encoding="UTF-8"?>
<svg width="20px" height="21px" viewBox="0 0 20 21" version="1.1" xmlns="http://www.w3.org/2000/svg" xmlns:xlink="http://www.w3.org/1999/xlink">
    <title>5BD0E44F-12C8-46F3-98A1-13B9792B1A07</title>
    <g id="Page-1" stroke="none" stroke-width="1" fill="none" fill-rule="evenodd">
        <g id="Prod-Topology-Properties-v5" transform="translate(-348.000000, -222.000000)" fill="#161616">
            <g id="Filter" transform="translate(348.000000, 222.666667)">
                <path d="M11.6666667,20 L8.33333333,20 C7.41285875,20 6.66666667,19.2538079 6.66666667,18.3333333 L6.66666667,12.0083333 L0.491666667,5.83333333 C0.178676844,5.52220809 0.00186065791,5.09964737 0,4.65833333 L0,1.66666667 C0,0.746192084 0.746192084,0 1.66666667,0 L18.3333333,0 C19.2538079,0 20,0.746192084 20,1.66666667 L20,4.65833333 C19.9981393,5.09964737 19.8213232,5.52220809 19.5083333,5.83333333 L13.3333333,12.0083333 L13.3333333,18.3333333 C13.3333333,19.2538079 12.5871412,20 11.6666667,20 Z M1.66666667,1.66666667 L1.66666667,4.65833333 L8.33333333,11.325 L8.33333333,18.3333333 L11.6666667,18.3333333 L11.6666667,11.325 L18.3333333,4.65833333 L18.3333333,1.66666667 L1.66666667,1.66666667 Z" id="Fill"></path>
            </g>
        </g>
    </g>
</svg>