<?xml version="1.0" encoding="UTF-8"?>
<svg width="25px" height="25px" viewBox="0 0 25 25" version="1.1" xmlns="http://www.w3.org/2000/svg" xmlns:xlink="http://www.w3.org/1999/xlink">
    <title>67F7B375-CD0F-4638-A8B2-EB44D1C239B0</title>
    <defs>
        <path d="M7.33333333,0 C11.3834215,0 14.6666667,3.28324517 14.6666667,7.33333333 C14.6666667,11.3834215 11.3834215,14.6666667 7.33333333,14.6666667 C3.28324517,14.6666667 0,11.3834215 0,7.33333333 C0,3.28324517 3.28324517,0 7.33333333,0 Z M7.33333333,1.12820513 C3.90633566,1.12820513 1.12820513,3.90633566 1.12820513,7.33333333 C1.12820513,10.760331 3.90633566,13.5384615 7.33333333,13.5384615 C10.760331,13.5384615 13.5384615,10.760331 13.5384615,7.33333333 C13.5384615,3.90633566 10.760331,1.12820513 7.33333333,1.12820513 Z M7.33336422,2.25641026 C7.64489241,2.25641026 7.8974359,2.55105509 7.8974359,2.9145179 L7.8974359,2.9145179 L7.8974359,6.86316377 C7.8974359,6.96533175 7.87704748,7.06609663 7.83788527,7.15747845 L7.83788527,7.15747845 L6.70974192,9.78990903 C6.57042228,10.1150001 6.23159963,10.2467692 5.95296036,10.0842237 C5.67432108,9.92167821 5.5613802,9.52637069 5.70069984,9.20127966 L5.70069984,9.20127966 L6.76929255,6.70780563 L6.76929255,2.9145179 C6.76929255,2.55105509 7.02183604,2.25641026 7.33336422,2.25641026 Z" id="path-1"></path>
    </defs>
    <g id="Page-1" stroke="none" stroke-width="1" fill="none" fill-rule="evenodd">
        <g id="Prod-Topology-Overview-v7" transform="translate(-350.000000, -393.000000)">
            <g id="Group-5" transform="translate(350.666667, 393.333333)">
                <g id="Group-29" fill="#3376CF" fill-opacity="0.05">
                    <circle id="Oval" cx="12" cy="12" r="12"></circle>
                </g>
                <g id="Group-29" transform="translate(4.666667, 4.666667)">
                    <mask id="mask-2" fill="white">
                        <use xlink:href="#path-1"></use>
                    </mask>
                    <use id="Combined-Shape" fill="#3376CF" fill-rule="nonzero" xlink:href="#path-1"></use>
                </g>
            </g>
        </g>
    </g>
</svg>