<?xml version="1.0" encoding="UTF-8"?>
<svg width="24px" height="20px" viewBox="0 0 24 20" version="1.1" xmlns="http://www.w3.org/2000/svg" xmlns:xlink="http://www.w3.org/1999/xlink">
    <title>Home</title>
    <g id="Page-1" stroke="none" stroke-width="1" fill="none" fill-rule="evenodd" fill-opacity="0.4">
        <g id="Topology-v2" transform="translate(-12.000000, -75.000000)" fill="#012169">
            <path d="M24.459225,75.66035 C24.1853138,75.4466064 23.8011112,75.4466064 23.5272,75.66035 L12.75,84.06455 L13.682025,85.243325 L15,84.215675 L15,93.5 C15.0016916,94.3277254 15.6722746,94.9983084 16.5,95 L31.5,95 C32.3277937,94.9984728 32.9984728,94.3277937 33,93.5 L33,84.2225 L34.317975,85.25 L35.25,84.07115 L24.459225,75.66035 Z M25.5,93.5 L22.5,93.5 L22.5,87.5 L25.5,87.5 L25.5,93.5 Z M27,93.5 L27,87.5 C26.9990494,86.6719669 26.3280331,86.0009506 25.5,86 L22.5,86 C21.6719156,86.0008268 21.0008268,86.6719156 21,87.5 L21,93.5 L16.5,93.5 L16.5,83.046125 L24,77.203625 L31.5,83.054 L31.5,93.5 L27,93.5 Z" id="Home"></path>
        </g>
    </g>
</svg>