<?xml version="1.0" encoding="UTF-8"?>
<svg width="36px" height="32px" viewBox="0 0 36 32" version="1.1" xmlns="http://www.w3.org/2000/svg" xmlns:xlink="http://www.w3.org/1999/xlink">
    <title>Layers-Button</title>
    <g id="Page-1" stroke="none" stroke-width="1" fill="none" fill-rule="evenodd">
        <g id="CSW-E-17" transform="translate(-116.000000, -62.000000)">
            <g id="Layers-Button" transform="translate(116.000000, 62.000000)">
                <rect id="Rectangle" stroke-opacity="0.4" stroke="#012169" fill="#FFFFFF" x="0.5" y="0.5" width="34.5555556" height="31" rx="2"></rect>
                <g id="noun-layers-4829590" transform="translate(9.000000, 7.000000)" fill="#012169" fill-rule="nonzero">
                    <path d="M17.7503081,6.19777824 L9.23734254,0.0792911145 C9.08970444,-0.0264303715 8.91027698,-0.0264303715 8.76265746,0.0792911145 L0.249691855,6.19777824 C0.0953792563,6.31065121 0,6.522282 0,6.75198171 C0,6.98148397 0.0953755399,7.19311957 0.249691855,7.30599254 L8.76265746,13.4201454 C8.91015062,13.5266182 9.08986796,13.5266182 9.23734254,13.4201454 L17.7503081,7.30599254 C17.9046207,7.19311957 18,6.98148878 18,6.75198171 C18,6.52229163 17.9046245,6.31065602 17.7503081,6.19777824 Z M8.99986993,12.147712 L1.4914246,6.74967012 L8.99986993,1.35596245 L16.5083153,6.74967012 L8.99986993,12.147712 Z" id="Shape"></path>
                    <path d="M0.241979239,11.7083987 L8.75398566,17.9188028 C8.9014622,18.0270657 9.08115928,18.0270657 9.22861725,17.9188028 L17.7406237,11.7083987 C17.8566005,11.6276317 17.9428205,11.4890036 17.9799795,11.3234563 C18.0171385,11.1580997 18.0021879,10.9799508 17.9383206,10.8293125 C17.8744517,10.6786595 17.7671849,10.5680991 17.6407589,10.5226588 C17.514188,10.4772141 17.3791932,10.5007002 17.2659735,10.5879597 L8.99104134,16.6228789 L0.716109181,10.5879597 C0.481688071,10.4245095 0.190792751,10.537553 0.0617767894,10.8424861 C-0.0674101033,11.147424 0.0124259546,11.5321562 0.241473877,11.7084232 L0.241979239,11.7083987 Z" id="Path"></path>
                </g>
            </g>
        </g>
    </g>
</svg>