<?xml version="1.0" encoding="UTF-8"?>
<svg width="24px" height="24px" viewBox="0 0 24 24" version="1.1" xmlns="http://www.w3.org/2000/svg" xmlns:xlink="http://www.w3.org/1999/xlink">
    <title>F90A043B-A744-4ADF-86D8-989D483920FD</title>
    <g id="Page-1" stroke="none" stroke-width="1" fill="none" fill-rule="evenodd" opacity="0.4">
        <g id="Prod-Topology-Properties-Editor-v7" transform="translate(-701.000000, -66.000000)">
            <g id="Table-view" transform="translate(701.000000, 66.000000)">
                <rect id="Rectangle" x="0" y="0" width="24" height="24"></rect>
                <path d="M19.750222,16.1147375 L19.750222,12.2597375 C19.750222,11.4313104 19.0786491,10.7597375 18.250222,10.7597375 L12.250222,10.7597375 L12.250222,6.90473751 C13.7129521,6.52706224 14.6666659,5.12064747 14.4763111,3.62198712 C14.2859563,2.12332678 13.0109231,1 11.500222,1 C9.98952093,1 8.71448775,2.12332678 8.52413293,3.62198712 C8.33377811,5.12064747 9.28749198,6.52706224 10.750222,6.90473751 L10.750222,10.7597375 L4.75022202,10.7597375 C3.9217949,10.7597375 3.25022202,11.4313104 3.25022202,12.2597375 L3.25022202,16.1147375 C1.78749198,16.4924128 0.83377811,17.8988276 1.02413293,19.3974879 C1.21448775,20.8961482 2.48952093,22.019475 4.00022202,22.019475 C5.51092311,22.019475 6.78595629,20.8961482 6.97631111,19.3974879 C7.16666593,17.8988276 6.21295206,16.4924128 4.75022202,16.1147375 L4.75022202,12.2597375 L18.250222,12.2597375 L18.250222,16.1147375 C16.787492,16.4924128 15.8337781,17.8988276 16.0241329,19.3974879 C16.2144878,20.8961482 17.4895209,22.019475 19.000222,22.019475 C20.5109231,22.019475 21.7859563,20.8961482 21.9763111,19.3974879 C22.1666659,17.8988276 21.2129521,16.4924128 19.750222,16.1147375 Z M5.50022202,19.0097375 C5.50022202,19.8381646 4.82864915,20.5097375 4.00022202,20.5097375 C3.1717949,20.5097375 2.50022202,19.8381646 2.50022202,19.0097375 C2.50022202,18.1813104 3.1717949,17.5097375 4.00022202,17.5097375 C4.82864915,17.5097375 5.50022202,18.1813104 5.50022202,19.0097375 Z M10.000222,4.00973751 C10.000222,3.18131038 10.6717949,2.50973751 11.500222,2.50973751 C12.3286491,2.50973751 13.000222,3.18131038 13.000222,4.00973751 C13.000222,4.83816463 12.3286491,5.50973751 11.500222,5.50973751 C10.6717949,5.50973751 10.000222,4.83816463 10.000222,4.00973751 Z M19.000222,20.5097375 C18.1717949,20.5097375 17.500222,19.8381646 17.500222,19.0097375 C17.500222,18.1813104 18.1717949,17.5097375 19.000222,17.5097375 C19.8286491,17.5097375 20.500222,18.1813104 20.500222,19.0097375 C20.500222,19.8381646 19.8286491,20.5097375 19.000222,20.5097375 Z" id="Fill" fill="#012169"></path>
            </g>
        </g>
    </g>
</svg>