<?xml version="1.0" encoding="UTF-8"?>
<svg width="14px" height="14px" viewBox="0 0 14 14" version="1.1" xmlns="http://www.w3.org/2000/svg" xmlns:xlink="http://www.w3.org/1999/xlink">
    <title>Layers-Icon</title>
    <g id="Page-1" stroke="none" stroke-width="1" fill="none" fill-rule="evenodd">
        <g id="I7" transform="translate(-272.000000, -431.000000)" fill="#3376CF" fill-rule="nonzero">
            <g id="Group-11" transform="translate(64.000000, 403.000000)">
                <g id="Layers-Icon" transform="translate(208.000000, 28.000000)">
                    <path d="M13.8057952,4.82049419 L7.18459975,0.0616708668 C7.06977012,-0.0205569556 6.93021543,-0.0205569556 6.81540025,0.0616708668 L0.194204776,4.82049419 C0.074183866,4.90828427 0,5.072886 0,5.25154133 C0,5.43004309 0.0741809755,5.59464856 0.194204776,5.68243864 L6.81540025,10.4378909 C6.93011715,10.520703 7.0698973,10.520703 7.18459975,10.4378909 L13.8057952,5.68243864 C13.9258161,5.59464856 14,5.43004683 14,5.25154133 C14,5.07289349 13.925819,4.90828802 13.8057952,4.82049419 Z M6.99989883,9.44822045 L1.15999691,5.24974342 L6.99989883,1.05463746 L12.8398008,5.24974342 L6.99989883,9.44822045 Z" id="Shape"></path>
                    <path d="M0.188206075,9.10653235 L6.80865551,13.9368466 C6.92335949,14.0210511 7.06312389,14.0210511 7.17781341,13.9368466 L13.7982628,9.10653235 C13.8884671,9.04371356 13.9555271,8.93589166 13.9844285,8.80713271 C14.0133299,8.67852203 14.0017017,8.53996177 13.9520271,8.42279861 C13.9023513,8.30562404 13.8189216,8.21963266 13.7205903,8.1842902 C13.6221462,8.14894431 13.5171502,8.1672113 13.4290905,8.23507979 L6.99303215,12.9289058 L0.556973808,8.23507979 C0.374646278,8.10795184 0.148394362,8.19587459 0.048048614,8.43304473 C-0.0524300804,8.67021868 0.00966463135,8.96945484 0.187813015,9.10655136 L0.188206075,9.10653235 Z" id="Path"></path>
                </g>
            </g>
        </g>
    </g>
</svg>