<?xml version="1.0" encoding="UTF-8"?>
<svg width="17px" height="22px" viewBox="0 0 17 22" version="1.1" xmlns="http://www.w3.org/2000/svg" xmlns:xlink="http://www.w3.org/1999/xlink">
    <title>A6B79BAF-AE34-4BE9-A30C-BC091C954E73</title>
    <g id="Page-1" stroke="none" stroke-width="1" fill="none" fill-rule="evenodd" fill-opacity="0.8">
        <g id="Prod-Blueprint-Properties-v2-v7" transform="translate(-1836.000000, -345.000000)" fill="#BBBBBB" fill-rule="nonzero">
            <g id="noun-lock-747565" transform="translate(1836.000000, 345.333333)">
                <path d="M14.2980865,8.68027915 L13.7126121,8.68027915 L13.7102973,5.76247298 C13.7078172,2.58375988 11.1218839,-0.00211378192 7.94317085,1.29657565e-06 C4.76462706,0.00231740288 2.17858409,2.58841591 2.18070047,5.767129 L2.18549533,8.68510449 L1.97683329,8.68510449 C0.884105691,8.68741926 -0.00248682087,9.57398269 5.24072857e-06,10.6667103 L5.24072857e-06,19.3540132 C5.24072857e-06,20.4467408 0.888888702,21.3333333 1.9816163,21.3333333 L14.302738,21.3262236 C15.3954656,21.3262236 16.2820581,20.4396734 16.279566,19.3469035 L16.279566,10.6574842 C16.279566,9.56475656 15.3906826,8.68049206 14.297955,8.68049206 L14.2980865,8.68027915 Z M4.3096352,8.68507402 L4.30484034,5.76709853 C4.30484034,3.75933431 5.93559322,2.12625343 7.94335743,2.12396774 C9.95112164,2.12396774 11.5842025,3.75721794 11.5842025,5.76248483 L11.5889974,8.68046032 L4.3096352,8.68507402 Z" id="Shape"></path>
            </g>
        </g>
    </g>
</svg>