<?xml version="1.0" encoding="UTF-8"?>
<svg width="24px" height="24px" viewBox="0 0 24 24" version="1.1" xmlns="http://www.w3.org/2000/svg" xmlns:xlink="http://www.w3.org/1999/xlink">
    <title>4CEBEF25-CB08-4FEF-8F76-082F983AA34C</title>
    <g id="Page-1" stroke="none" stroke-width="1" fill="none" fill-rule="evenodd">
        <g id="Dashboard-Concept3-Topologies" transform="translate(-1345.000000, -150.000000)">
            <g id="Options" transform="translate(1345.000000, 150.000000)">
                <rect id="Rectangle" x="0" y="0" width="24" height="24"></rect>
                <path d="M12,7.5 C12.8284271,7.5 13.5,6.82842712 13.5,6 C13.5,5.17157288 12.8284271,4.5 12,4.5 C11.1715729,4.5 10.5,5.17157288 10.5,6 C10.5,6.82842712 11.1715729,7.5 12,7.5 Z M12,13.5 C12.8284271,13.5 13.5,12.8284271 13.5,12 C13.5,11.1715729 12.8284271,10.5 12,10.5 C11.1715729,10.5 10.5,11.1715729 10.5,12 C10.5,12.8284271 11.1715729,13.5 12,13.5 Z M12,19.5 C12.8284271,19.5 13.5,18.8284271 13.5,18 C13.5,17.1715729 12.8284271,16.5 12,16.5 C11.1715729,16.5 10.5,17.1715729 10.5,18 C10.5,18.8284271 11.1715729,19.5 12,19.5 Z" id="Fill" fill="#525252"></path>
            </g>
        </g>
    </g>
</svg>