<?xml version="1.0" encoding="UTF-8"?>
<svg width="36px" height="32px" viewBox="0 0 36 32" version="1.1" xmlns="http://www.w3.org/2000/svg" xmlns:xlink="http://www.w3.org/1999/xlink">
    <title>Overview-Button</title>
    <g id="Page-1" stroke="none" stroke-width="1" fill="none" fill-rule="evenodd">
        <g id="CSW-E-17" transform="translate(-1069.000000, -62.000000)">
            <g id="Overview-Button" transform="translate(1069.000000, 62.000000)">
                <rect id="Rectangle" stroke-opacity="0.4" stroke="#012169" fill="#FFFFFF" x="0.5" y="0.5" width="34.5555556" height="31" rx="2"></rect>
                <g id="Actions-/-Toggle-/-list-/-24" transform="translate(6.000000, 4.000000)" fill="#012169">
                    <path d="M7.5,4.5 L21,4.5 L21,6 L7.5,6 L7.5,4.5 Z M7.5,18 L21,18 L21,19.5 L7.5,19.5 L7.5,18 Z M7.5,11.25 L21,11.25 L21,12.75 L7.5,12.75 L7.5,11.25 Z M3,11.25 L4.5,11.25 L4.5,12.75 L3,12.75 L3,11.25 Z M3,4.5 L4.5,4.5 L4.5,6 L3,6 L3,4.5 Z M3,18 L4.5,18 L4.5,19.5 L3,19.5 L3,18 Z" id="Fill"></path>
                </g>
            </g>
        </g>
    </g>
</svg>