<?xml version="1.0" encoding="UTF-8"?>
<svg width="36px" height="32px" viewBox="0 0 36 32" version="1.1" xmlns="http://www.w3.org/2000/svg" xmlns:xlink="http://www.w3.org/1999/xlink">
    <title>Properties-Button</title>
    <g id="Page-1" stroke="none" stroke-width="1" fill="none" fill-rule="evenodd">
        <g id="CSW-E-7" transform="translate(-1117.000000, -62.000000)">
            <g id="Properties-Button" transform="translate(1117.000000, 62.000000)">
                <rect id="Rectangle" stroke-opacity="0.4" stroke="#012169" fill="#FFFFFF" x="0.5" y="0.5" width="34.5555556" height="31" rx="2"></rect>
                <g id="Organization-/-Data-/-data--1-/-24" transform="translate(6.000000, 4.000000)" fill="#012169">
                    <path d="M11.25,4.5 L21,4.5 L21,6 L11.25,6 L11.25,4.5 Z M11.25,18 L21,18 L21,19.5 L11.25,19.5 L11.25,18 Z M3,11.25 L12.75,11.25 L12.75,12.75 L3,12.75 L3,11.25 Z M5.25,8.25 C3.59314575,8.25 2.25,6.90685425 2.25,5.25 C2.25,3.59314575 3.59314575,2.25 5.25,2.25 C6.90685425,2.25 8.25,3.59314575 8.25,5.25 C8.25,6.04564947 7.93392948,6.80871121 7.37132034,7.37132034 C6.80871121,7.93392948 6.04564947,8.25 5.25,8.25 Z M5.25,3.75 C4.42157288,3.75 3.75,4.42157288 3.75,5.25 C3.75,6.07842712 4.42157288,6.75 5.25,6.75 C6.07842712,6.75 6.75,6.07842712 6.75,5.25 C6.75,4.85217527 6.59196474,4.4706444 6.31066017,4.18933983 C6.0293556,3.90803526 5.64782473,3.75 5.25,3.75 Z M5.25,21.75 C3.59314575,21.75 2.25,20.4068542 2.25,18.75 C2.25,17.0931458 3.59314575,15.75 5.25,15.75 C6.90685425,15.75 8.25,17.0931458 8.25,18.75 C8.25,20.4068542 6.90685425,21.75 5.25,21.75 Z M5.25,17.25 C4.42157288,17.25 3.75,17.9215729 3.75,18.75 C3.75,19.5784271 4.42157288,20.25 5.25,20.25 C6.07842712,20.25 6.75,19.5784271 6.75,18.75 C6.75,17.9215729 6.07842712,17.25 5.25,17.25 Z M18.75,15 C17.0931458,15 15.75,13.6568542 15.75,12 C15.75,10.3431458 17.0931458,9 18.75,9 C20.4068542,9 21.75,10.3431458 21.75,12 C21.75,12.7956495 21.4339295,13.5587112 20.8713203,14.1213203 C20.3087112,14.6839295 19.5456495,15 18.75,15 Z M18.75,10.5 C17.9215729,10.5 17.25,11.1715729 17.25,12 C17.25,12.8284271 17.9215729,13.5 18.75,13.5 C19.5784271,13.5 20.25,12.8284271 20.25,12 C20.25,11.1715729 19.5784271,10.5 18.75,10.5 Z" id="Fill"></path>
                </g>
            </g>
        </g>
    </g>
</svg>