<?xml version="1.0" encoding="UTF-8"?>
<svg width="22px" height="20px" viewBox="0 0 22 20" version="1.1" xmlns="http://www.w3.org/2000/svg" xmlns:xlink="http://www.w3.org/1999/xlink">
    <title>Fill</title>
    <g id="Page-1" stroke="none" stroke-width="1" fill="none" fill-rule="evenodd" opacity="0.4">
        <g id="Topology-v2" transform="translate(-13.000000, -194.000000)" fill="#012169">
            <g id="Enterprise-/-Commerce-/-inventory-management-/-24" transform="translate(12.000000, 193.000000)">
                <path d="M14.25,18 L17.25,18 L17.25,21 L14.25,21 L14.25,18 Z M19.5,18 L22.5,18 L22.5,21 L19.5,21 L19.5,18 Z M14.25,12.75 L17.25,12.75 L17.25,15.75 L14.25,15.75 L14.25,12.75 Z M19.5,12.75 L22.5,12.75 L22.5,15.75 L19.5,15.75 L19.5,12.75 Z M12.75,18 L3,18 L3,7.5 L21,7.5 L21,11.25 L22.5,11.25 L22.5,7.5 C22.4990494,6.67196695 21.8280331,6.0009506 21,6 L16.5,6 L16.5,3 C16.4990494,2.17196695 15.8280331,1.5009506 15,1.5 L9,1.5 C8.17191561,1.50082684 7.50082684,2.17191561 7.5,3 L7.5,6 L3,6 C2.17191561,6.00082684 1.50082684,6.67191561 1.5,7.5 L1.5,18 C1.5009506,18.8280331 2.17196695,19.4990494 3,19.5 L12.75,19.5 L12.75,18 Z M9,3 L15,3 L15,6 L9,6 L9,3 Z" id="Fill"></path>
            </g>
        </g>
    </g>
</svg>