<?xml version="1.0" encoding="UTF-8"?>
<svg width="22px" height="20px" viewBox="0 0 22 20" version="1.1" xmlns="http://www.w3.org/2000/svg" xmlns:xlink="http://www.w3.org/1999/xlink">
    <title>Fill</title>
    <g id="Page-1" stroke="none" stroke-width="1" fill="none" fill-rule="evenodd">
        <g id="Topology-v2" transform="translate(-13.000000, -194.000000)" fill="#012169">
            <g id="Enterprise-/-Commerce-/-inventory-management-/-24" transform="translate(13.500000, 194.500000)">
                <path d="M12.75,16.5 L15.75,16.5 L15.75,19.5 L12.75,19.5 L12.75,16.5 Z M18,16.5 L21,16.5 L21,19.5 L18,19.5 L18,16.5 Z M12.75,11.25 L15.75,11.25 L15.75,14.25 L12.75,14.25 L12.75,11.25 Z M18,11.25 L21,11.25 L21,14.25 L18,14.25 L18,11.25 Z M11.25,16.5 L1.5,16.5 L1.5,6 L19.5,6 L19.5,9.75 L21,9.75 L21,6 C20.9990494,5.17196695 20.3280331,4.5009506 19.5,4.5 L15,4.5 L15,1.5 C14.9990494,0.671966946 14.3280331,0.000950599169 13.5,0 L7.5,0 C6.67191561,0.000826844745 6.00082684,0.671915607 6,1.5 L6,4.5 L1.5,4.5 C0.671915607,4.50082684 0.000826844745,5.17191561 0,6 L0,16.5 C0.000950599169,17.3280331 0.671966946,17.9990494 1.5,18 L11.25,18 L11.25,16.5 Z M7.5,1.5 L13.5,1.5 L13.5,4.5 L7.5,4.5 L7.5,1.5 Z" id="Fill"></path>
            </g>
        </g>
    </g>
</svg>