<?xml version="1.0" encoding="UTF-8"?>
<svg width="24px" height="24px" viewBox="0 0 24 24" version="1.1" xmlns="http://www.w3.org/2000/svg" xmlns:xlink="http://www.w3.org/1999/xlink">
    <title>Save-icon</title>
    <g id="Page-1" stroke="none" stroke-width="1" fill="none" fill-rule="evenodd">
        <g id="CSW-E-7" transform="translate(-1275.000000, -66.000000)">
            <g id="Save-icon" transform="translate(1275.000000, 66.000000)">
                <rect id="Rectangle" x="0" y="0" width="24" height="24"></rect>
                <g id="Actions-/-Formatting-/-save-/-24" transform="translate(3.000000, 3.000000)" fill="#012169">
                    <path d="M17.7825,3.96752483 L14.0325,0.217524834 C13.8909609,0.0771349486 13.6993522,-0.00112773473 13.5,1.22821584e-05 L1.5,1.22821584e-05 C0.671572875,1.22821584e-05 0,0.67159771 0,1.50002483 L0,16.5000248 C0,17.328452 0.671572875,18.0000248 1.5,18.0000248 L16.5,18.0000248 C17.3284271,18.0000248 18.0000126,17.328452 18.0000126,16.5000248 L18.0000126,4.50002483 C18.0011526,4.3006726 17.9228899,4.10906396 17.7825,3.96752483 Z M6,1.50002483 L12,1.50002483 L12,4.50002483 L6,4.50002483 L6,1.50002483 Z M12,16.5000248 L6,16.5000248 L6,10.5000248 L12,10.5000248 L12,16.5000248 Z M13.5,16.5000248 L13.5,10.5000248 C13.5,9.67159771 12.8284271,9.00002483 12,9.00002483 L6,9.00002483 C5.17157288,9.00002483 4.5,9.67159771 4.5,10.5000248 L4.5,16.5000248 L1.5,16.5000248 L1.5,1.50002483 L4.5,1.50002483 L4.5,4.50002483 C4.5,5.32845196 5.17157288,6.00002483 6,6.00002483 L12,6.00002483 C12.8284271,6.00002483 13.5,5.32845196 13.5,4.50002483 L13.5,1.80752483 L16.5,4.80752483 L16.5,16.5000248 L13.5,16.5000248 Z" id="Fill"></path>
                </g>
            </g>
        </g>
    </g>
</svg>