<?xml version="1.0" encoding="UTF-8"?>
<svg width="33px" height="32px" viewBox="0 0 33 32" version="1.1" xmlns="http://www.w3.org/2000/svg" xmlns:xlink="http://www.w3.org/1999/xlink">
    <title>13F3F0DC-2B32-432F-91EC-245AF06563B3</title>
    <g id="Page-1" stroke="none" stroke-width="1" fill="none" fill-rule="evenodd">
        <g id="Prod-Blueprint-Properties-v2-v7" transform="translate(-934.000000, -88.000000)">
            <g id="Table-view" transform="translate(934.666667, 88.000000)">
                <rect id="Rectangle" x="0" y="0" width="32" height="32"></rect>
                <path d="M26.3336294,21.4863167 L26.3336294,16.3463167 C26.3336294,15.2417472 25.4381989,14.3463167 24.3336294,14.3463167 L16.3336294,14.3463167 L16.3336294,9.20631668 C18.2839361,8.70274965 19.5555546,6.82752996 19.3017481,4.82931616 C19.0479417,2.83110237 17.3478975,1.33333333 15.3336294,1.33333333 C13.3193612,1.33333333 11.619317,2.83110237 11.3655106,4.82931616 C11.1117041,6.82752996 12.3833226,8.70274965 14.3336294,9.20631668 L14.3336294,14.3463167 L6.33362936,14.3463167 C5.22905986,14.3463167 4.33362936,15.2417472 4.33362936,16.3463167 L4.33362936,21.4863167 C2.38332264,21.9898837 1.11170415,23.8651034 1.36551058,25.8633172 C1.61931701,27.861531 3.31936124,29.3593 5.33362936,29.3593 C7.34789749,29.3593 9.04794172,27.861531 9.30174815,25.8633172 C9.55555458,23.8651034 8.28393609,21.9898837 6.33362936,21.4863167 L6.33362936,16.3463167 L24.3336294,16.3463167 L24.3336294,21.4863167 C22.3833226,21.9898837 21.1117041,23.8651034 21.3655106,25.8633172 C21.619317,27.861531 23.3193612,29.3593 25.3336294,29.3593 C27.3478975,29.3593 29.0479417,27.861531 29.3017481,25.8633172 C29.5555546,23.8651034 28.2839361,21.9898837 26.3336294,21.4863167 Z M7.33362936,25.3463167 C7.33362936,26.4508862 6.43819886,27.3463167 5.33362936,27.3463167 C4.22905986,27.3463167 3.33362936,26.4508862 3.33362936,25.3463167 C3.33362936,24.2417472 4.22905986,23.3463167 5.33362936,23.3463167 C6.43819886,23.3463167 7.33362936,24.2417472 7.33362936,25.3463167 Z M13.3336294,5.34631668 C13.3336294,4.24174718 14.2290599,3.34631668 15.3336294,3.34631668 C16.4381989,3.34631668 17.3336294,4.24174718 17.3336294,5.34631668 C17.3336294,6.45088618 16.4381989,7.34631668 15.3336294,7.34631668 C14.2290599,7.34631668 13.3336294,6.45088618 13.3336294,5.34631668 Z M25.3336294,27.3463167 C24.2290599,27.3463167 23.3336294,26.4508862 23.3336294,25.3463167 C23.3336294,24.2417472 24.2290599,23.3463167 25.3336294,23.3463167 C26.4381989,23.3463167 27.3336294,24.2417472 27.3336294,25.3463167 C27.3336294,26.4508862 26.4381989,27.3463167 25.3336294,27.3463167 Z" id="Fill" fill="#012169"></path>
            </g>
        </g>
    </g>
</svg>