<?xml version="1.0" encoding="UTF-8"?>
<svg width="18px" height="22px" viewBox="0 0 18 22" version="1.1" xmlns="http://www.w3.org/2000/svg" xmlns:xlink="http://www.w3.org/1999/xlink">
    <title>B7C50207-9C1F-4AD2-951D-C0BF18560B39</title>
    <g id="Page-1" stroke="none" stroke-width="1" fill="none" fill-rule="evenodd" fill-opacity="0.6" opacity="0.8">
        <g id="Prod-Topology-Overview-v7" transform="translate(-1862.000000, -885.000000)" fill="#8D8D8D" fill-rule="nonzero">
            <g id="Group" transform="translate(1862.666667, 885.333333)">
                <path d="M17.3333333,2.66666529 L17.3333333,3.7333314 C17.3333333,4.02788311 17.0908209,4.26666445 16.7916667,4.26666445 L0.541666664,4.26666445 C0.242512426,4.26666445 0,4.02788311 0,3.7333314 L0,2.66666529 C0,2.37211356 0.242512426,2.13333222 0.541666664,2.13333222 L5.41666667,2.13333222 L5.41666667,1.06666611 C5.41666667,0.477562686 5.90169152,0 6.5,0 L10.8333333,0 C11.4316418,0 11.9166667,0.477562686 11.9166667,1.06666611 L11.9166667,2.13333222 L16.7916667,2.13333222 C17.0908209,2.13333222 17.3333333,2.37211356 17.3333333,2.66666529 Z M2.02583333,19.3493233 C2.10561654,20.4688436 3.05269426,21.336075 4.19250001,21.3333288 L13.1625,21.3333288 C14.3023058,21.336075 15.2493835,20.4688436 15.3291667,19.3493233 L16.25,6.39999667 L1.08333333,6.39999667 L2.02583333,19.3493233 Z" id="Shape"></path>
            </g>
        </g>
    </g>
</svg>