<?xml version="1.0" encoding="UTF-8"?>
<svg width="19px" height="23px" viewBox="0 0 19 23" version="1.1" xmlns="http://www.w3.org/2000/svg" xmlns:xlink="http://www.w3.org/1999/xlink">
    <title>827E27DD-1384-433E-87BB-B53DB82AF072</title>
    <g id="Page-1" stroke="none" stroke-width="1" fill="none" fill-rule="evenodd" fill-opacity="0.8">
        <g id="Prod-Blueprint-Properties-v2-v7" transform="translate(-1834.000000, -441.000000)" fill="#BBBBBB" fill-rule="nonzero">
            <path d="M1850.29796,450.013827 C1851.39069,450.013827 1852.27958,450.898091 1852.27958,451.990819 L1852.27958,451.990819 L1852.27958,460.680238 C1852.28206,461.773008 1851.39547,462.659558 1850.30274,462.659558 L1850.30274,462.659558 L1837.98162,462.666669 C1836.88889,462.666669 1836.00001,461.780075 1836.00001,460.687348 L1836.00001,460.687348 L1836.00001,452.000045 C1835.99752,450.907317 1836.88411,450.020754 1837.97684,450.018439 L1837.97684,450.018439 L1838.1855,450.018439 L1838.18071,447.100464 C1838.17859,443.921751 1840.76463,441.335652 1843.94318,441.333335 C1846.03795,441.331942 1847.8753,442.454469 1848.88549,444.129917 L1847.07164,445.236255 C1846.43567,444.171977 1845.27149,443.457302 1843.94336,443.457302 C1841.9356,443.459588 1840.30485,445.092669 1840.30485,447.100433 L1840.30485,447.100433 L1840.30964,450.018409 L1847.589,450.013795 Z" id="Combined-Shape" transform="translate(1844.139791, 452.000001) rotate(10.000000) translate(-1844.139791, -452.000001) "></path>
        </g>
    </g>
</svg>